# xmcd
#
# Track frame offsets:
#	150
#	28982
#	55151
#	84855
#	112067
#	142950
#	160235
#	186764
#	213252
#	233116
#	262915
#	292498
#	323950
#	342991
#	370300
#
# Disc length: 5203 seconds
#
# Revision: 0
# Processed by: cddbd v1.5.2PL0 Copyright (c) Steve Scherf et al.
# Submitted via: EasyCDDAExtractor 10.2.0.1
#
DISCID=e714510f
DTITLE=Various Artist - Compilations #33
DYEAR=1900
DGENRE=
TTITLE0=High Contrast_09
TTITLE1=The Underwolves - Under Your Sky (Origin Unknown
TTITLE2=High Contrast_02
TTITLE3=The Underwolves - So Blue It's Black (Peshay vs 
TTITLE4=High Contrast_07
TTITLE5=DeeJay Delta - My Little Honey
TTITLE6=The Underwolves - Shaken (Fauna Flash Drum and Bas
TTITLE7=John B - Trance 'N' Bass - Cause4Concern - Moongerm
TTITLE8=John B - Trance 'N' Bass - Concord Dawn - Aurora
TTITLE9=John B - Trance 'N' Bass - Raiden - Faith
TTITLE10=John B - Trance 'N' Bass - Concord Dawn - Take Me Away
TTITLE11=John B - Trance 'N' Bass - Kemal and Tech Itch - The Callin
TTITLE12=John B - Trance 'N' Bass - Plexus - Speedreak
TTITLE13=John B - Trance 'N' Bass - D-Kay and Rawfull - Be There 4 U
TTITLE14=John B - Trance 'N' Bass - Klute - Tranceformat
EXTD=
EXTT0=
EXTT1=
EXTT2=
EXTT3=
EXTT4=
EXTT5=
EXTT6=
EXTT7=
EXTT8=
EXTT9=
EXTT10=
EXTT11=
EXTT12=
EXTT13=
EXTT14=
PLAYORDER=
